M48
;Layer_Color=9474304
;FILE_FORMAT=2:5
INCH,TZ
;TYPE=PLATED
T1F00S00C0.02756
T2F00S00C0.02800
T3F00S00C0.03150
T4F00S00C0.03504
T5F00S00C0.03543
T6F00S00C0.03937
T7F00S00C0.06181
T8F00S00C0.09449
;TYPE=NON_PLATED
T9F00S00C0.12795
%
T01
X159768Y113000
Y143000
X193232Y142500
Y112500
T02
X151500Y93500
X150000Y118500
X143500Y138500
X216000Y256039
T03
T04
X53000Y57500
X63000
X73000
X83000
X88000Y67500
X78000
X68000
X58000
X310000
X305000Y57500
X315000
X325000
X335000
X340000Y67500
X330000
X320000
T05
X131500Y26500
X141500
X151500
Y56500
X141500
X131500
X134000Y118500
X124000
Y128500
X134000
Y138500
X124000
X161500Y56500
X171500
X181500
X191500
X201500
X211500
X221500
X231500
X241500
X251500
X261500
Y26500
X251500
X241500
X231500
X221500
X211500
X201500
X191500
X181500
X171500
X161500
X354500Y100500
Y110500
Y134000
Y144000
Y167000
Y177000
X363000Y213000
Y223000
X333804Y226039
Y216039
Y206039
X317500Y213000
Y223000
X333804Y236039
Y246039
Y256039
X333000Y306000
X285500
X236000
X186500
X198245Y256039
Y246039
Y236039
Y226039
Y216039
Y206039
X182000Y213000
Y223000
X228000
Y213000
X243432Y216039
Y206039
Y226039
Y236039
Y246039
Y256039
X288618
Y246039
Y236039
Y226039
Y216039
Y206039
X273500Y213000
Y223000
X153059Y226039
Y216039
Y206039
X137000Y213000
Y223000
X153059Y236039
Y246039
Y256039
X107873
Y246039
Y236039
Y226039
Y216039
Y206039
X91846Y213000
Y223000
X62686Y226039
Y216039
Y206039
X45342Y213000
Y223000
X62686Y236039
Y246039
Y256039
X57000Y282500
Y292500
X36500
Y302500
X17000Y292500
Y282500
X17500Y256039
Y246039
Y236039
Y226039
Y216039
Y206039
X89000Y306000
X136500
Y316000
Y326000
Y336000
Y346000
Y356000
X89000
Y346000
Y336000
Y326000
Y316000
X118500
Y326000
X36500Y322500
Y312500
X17000
Y322500
X167500Y326000
Y316000
X186500
Y326000
Y336000
Y346000
Y356000
X236000
Y346000
Y336000
Y326000
Y316000
X217346
Y326000
X267500
Y316000
X285500
Y326000
Y336000
Y346000
Y356000
X333000
Y346000
Y336000
Y326000
Y316000
X316000
Y326000
X359500
Y316000
T06
T07
X39496Y20492
X101504
X291496
X353504
T08
X17500Y37500
X224000Y-742000
Y-1058000
X374000Y37500
X580500Y-742000
Y-1058000
X17500Y353500
X374000
T09
X48000Y32500
X93000
X300000
X345000
M30
