G04*
G04 #@! TF.GenerationSoftware,Altium Limited,Altium Designer,18.1.7 (191)*
G04*
G04 Layer_Color=32768*
%FSLAX25Y25*%
%MOIN*%
G70*
G01*
G75*
%ADD49C,0.00394*%
%ADD50C,0.00197*%
D49*
X322500Y30531D02*
Y34468D01*
X320532Y32500D02*
X324469D01*
X70500Y30531D02*
Y34468D01*
X68532Y32500D02*
X72469D01*
X194532Y41500D02*
X198469D01*
X196500Y39531D02*
Y43468D01*
X176500Y81531D02*
Y85468D01*
X174532Y83500D02*
X178469D01*
D50*
X218358Y78756D02*
X225642D01*
Y91945D01*
X218358D02*
X225642D01*
X218358Y78756D02*
Y91945D01*
X258165Y74102D02*
X278835D01*
X258165Y91898D02*
X278835D01*
Y74102D02*
Y91898D01*
X258165Y74102D02*
Y91898D01*
X48102Y312165D02*
Y332835D01*
X65898Y312165D02*
Y332835D01*
X48102Y312165D02*
X65898D01*
X48102Y332835D02*
X65898D01*
X236165Y74102D02*
X256835D01*
X236165Y91898D02*
X256835D01*
Y74102D02*
Y91898D01*
X236165Y74102D02*
Y91898D01*
X103602Y335665D02*
Y356335D01*
X121398Y335665D02*
Y356335D01*
X103602Y335665D02*
X121398D01*
X103602Y356335D02*
X121398D01*
X152602Y335665D02*
Y356335D01*
X170398Y335665D02*
Y356335D01*
X152602Y335665D02*
X170398D01*
X152602Y356335D02*
X170398D01*
X202602Y335665D02*
Y356335D01*
X220398Y335665D02*
Y356335D01*
X202602Y335665D02*
X220398D01*
X202602Y356335D02*
X220398D01*
X252602Y335665D02*
Y356335D01*
X270398Y335665D02*
Y356335D01*
X252602Y335665D02*
X270398D01*
X252602Y356335D02*
X270398D01*
X301102Y335665D02*
Y356335D01*
X318898Y335665D02*
Y356335D01*
X301102Y335665D02*
X318898D01*
X301102Y356335D02*
X318898D01*
X344606Y335665D02*
Y356335D01*
X362402Y335665D02*
Y356335D01*
X344606Y335665D02*
X362402D01*
X344606Y356335D02*
X362402D01*
X348102Y231665D02*
Y252335D01*
X365898Y231665D02*
Y252335D01*
X348102Y231665D02*
X365898D01*
X348102Y252335D02*
X365898D01*
X302602Y231665D02*
Y252335D01*
X320398Y231665D02*
Y252335D01*
X302602Y231665D02*
X320398D01*
X302602Y252335D02*
X320398D01*
X258602Y231665D02*
Y252335D01*
X276398Y231665D02*
Y252335D01*
X258602Y231665D02*
X276398D01*
X258602Y252335D02*
X276398D01*
X213102Y231665D02*
Y252335D01*
X230898Y231665D02*
Y252335D01*
X213102Y231665D02*
X230898D01*
X213102Y252335D02*
X230898D01*
X167102Y231665D02*
Y252335D01*
X184898Y231665D02*
Y252335D01*
X167102Y231665D02*
X184898D01*
X167102Y252335D02*
X184898D01*
X122602Y231665D02*
Y252335D01*
X140398Y231665D02*
Y252335D01*
X122602Y231665D02*
X140398D01*
X122602Y252335D02*
X140398D01*
X77102Y231665D02*
Y252335D01*
X94898Y231665D02*
Y252335D01*
X77102Y231665D02*
X94898D01*
X77102Y252335D02*
X94898D01*
X30598Y231665D02*
Y252335D01*
X48394Y231665D02*
Y252335D01*
X30598Y231665D02*
X48394D01*
X30598Y252335D02*
X48394D01*
X286850Y74390D02*
X358150D01*
Y98D02*
Y74390D01*
X286850Y98D02*
X358150D01*
X286850D02*
Y74390D01*
X34850D02*
X106150D01*
Y98D02*
Y74390D01*
X34850Y98D02*
X106150D01*
X34850D02*
Y74390D01*
X212516Y104350D02*
Y140650D01*
X244484D01*
Y104350D02*
Y140650D01*
X212516Y104350D02*
X244484D01*
X256654Y131594D02*
Y143406D01*
Y131594D02*
X324370D01*
Y143406D01*
X256654D02*
X324370D01*
X148547Y73854D02*
X204453D01*
X148547Y93146D02*
X204453D01*
X148547Y73854D02*
Y93146D01*
X204453Y73854D02*
Y93146D01*
M02*
