G04*
G04 #@! TF.GenerationSoftware,Altium Limited,Altium Designer,18.1.7 (191)*
G04*
G04 Layer_Color=2752767*
%FSLAX25Y25*%
%MOIN*%
G70*
G01*
G75*
%ADD51C,0.00200*%
%ADD52C,0.00267*%
%ADD53C,0.00133*%
D51*
X91046Y212200D02*
Y213800D01*
X92646D01*
Y212200D01*
X91046D01*
Y222200D02*
Y223800D01*
X92646D01*
Y222200D01*
X91046D01*
X136200Y212200D02*
Y213800D01*
X137800D01*
Y212200D01*
X136200D01*
Y222200D02*
Y223800D01*
X137800D01*
Y222200D01*
X136200D01*
X181200Y212200D02*
Y213800D01*
X182800D01*
Y212200D01*
X181200D01*
Y222200D02*
Y223800D01*
X182800D01*
Y222200D01*
X181200D01*
X227200Y212200D02*
Y213800D01*
X228800D01*
Y212200D01*
X227200D01*
Y222200D02*
Y223800D01*
X228800D01*
Y222200D01*
X227200D01*
X272700Y212200D02*
Y213800D01*
X274300D01*
Y212200D01*
X272700D01*
Y222200D02*
Y223800D01*
X274300D01*
Y222200D01*
X272700D01*
X316700Y212200D02*
Y213800D01*
X318300D01*
Y212200D01*
X316700D01*
Y222200D02*
Y223800D01*
X318300D01*
Y222200D01*
X316700D01*
X362200Y212200D02*
Y213800D01*
X363800D01*
Y212200D01*
X362200D01*
Y222200D02*
Y223800D01*
X363800D01*
Y222200D01*
X362200D01*
X44542Y212200D02*
Y213800D01*
X46142D01*
Y212200D01*
X44542D01*
Y222200D02*
Y223800D01*
X46142D01*
Y222200D01*
X44542D01*
X315200Y315200D02*
Y316800D01*
X316800D01*
Y315200D01*
X315200D01*
Y325200D02*
Y326800D01*
X316800D01*
Y325200D01*
X315200D01*
X358700Y315200D02*
Y316800D01*
X360300D01*
Y315200D01*
X358700D01*
Y325200D02*
Y326800D01*
X360300D01*
Y325200D01*
X358700D01*
X266700Y315200D02*
Y316800D01*
X268300D01*
Y315200D01*
X266700D01*
Y325200D02*
Y326800D01*
X268300D01*
Y325200D01*
X266700D01*
X216546Y315200D02*
Y316800D01*
X218146D01*
Y315200D01*
X216546D01*
Y325200D02*
Y326800D01*
X218146D01*
Y325200D01*
X216546D01*
X166700Y315200D02*
Y316800D01*
X168300D01*
Y315200D01*
X166700D01*
Y325200D02*
Y326800D01*
X168300D01*
Y325200D01*
X166700D01*
X117700Y315200D02*
Y316800D01*
X119300D01*
Y315200D01*
X117700D01*
Y325200D02*
Y326800D01*
X119300D01*
Y325200D01*
X117700D01*
X16200Y281700D02*
Y283300D01*
X17800D01*
Y281700D01*
X16200D01*
Y291700D02*
Y293300D01*
X17800D01*
Y291700D01*
X16200D01*
X353504Y19692D02*
X352704Y21292D01*
X354304D01*
X353504Y19692D01*
X291496D02*
X290696Y21292D01*
X292296D01*
X291496Y19692D01*
X340000Y66700D02*
X340400Y67100D01*
X340800D01*
X340400Y67500D01*
X340800Y67900D01*
X340400D01*
X340000Y68300D01*
X339600Y67900D01*
X339200D01*
X339600Y67500D01*
X339200Y67100D01*
X339600D01*
X340000Y66700D01*
X330000D02*
X330400Y67100D01*
X330800D01*
X330400Y67500D01*
X330800Y67900D01*
X330400D01*
X330000Y68300D01*
X329600Y67900D01*
X329200D01*
X329600Y67500D01*
X329200Y67100D01*
X329600D01*
X330000Y66700D01*
X320000D02*
X320400Y67100D01*
X320800D01*
X320400Y67500D01*
X320800Y67900D01*
X320400D01*
X320000Y68300D01*
X319600Y67900D01*
X319200D01*
X319600Y67500D01*
X319200Y67100D01*
X319600D01*
X320000Y66700D01*
X310000D02*
X310400Y67100D01*
X310800D01*
X310400Y67500D01*
X310800Y67900D01*
X310400D01*
X310000Y68300D01*
X309600Y67900D01*
X309200D01*
X309600Y67500D01*
X309200Y67100D01*
X309600D01*
X310000Y66700D01*
X335000Y56700D02*
X335400Y57100D01*
X335800D01*
X335400Y57500D01*
X335800Y57900D01*
X335400D01*
X335000Y58300D01*
X334600Y57900D01*
X334200D01*
X334600Y57500D01*
X334200Y57100D01*
X334600D01*
X335000Y56700D01*
X325000D02*
X325400Y57100D01*
X325800D01*
X325400Y57500D01*
X325800Y57900D01*
X325400D01*
X325000Y58300D01*
X324600Y57900D01*
X324200D01*
X324600Y57500D01*
X324200Y57100D01*
X324600D01*
X325000Y56700D01*
X315000D02*
X315400Y57100D01*
X315800D01*
X315400Y57500D01*
X315800Y57900D01*
X315400D01*
X315000Y58300D01*
X314600Y57900D01*
X314200D01*
X314600Y57500D01*
X314200Y57100D01*
X314600D01*
X315000Y56700D01*
X305000D02*
X305400Y57100D01*
X305800D01*
X305400Y57500D01*
X305800Y57900D01*
X305400D01*
X305000Y58300D01*
X304600Y57900D01*
X304200D01*
X304600Y57500D01*
X304200Y57100D01*
X304600D01*
X305000Y56700D01*
X344200Y31700D02*
X344600Y32500D01*
X344200Y33300D01*
X345000Y32900D01*
X345800Y33300D01*
X345400Y32500D01*
X345800Y31700D01*
X345000Y32100D01*
X344200Y31700D01*
X299200D02*
X299600Y32500D01*
X299200Y33300D01*
X300000Y32900D01*
X300800Y33300D01*
X300400Y32500D01*
X300800Y31700D01*
X300000Y32100D01*
X299200Y31700D01*
X101504Y19692D02*
X100704Y21292D01*
X102304D01*
X101504Y19692D01*
X39496D02*
X38696Y21292D01*
X40296D01*
X39496Y19692D01*
X88000Y66700D02*
X88400Y67100D01*
X88800D01*
X88400Y67500D01*
X88800Y67900D01*
X88400D01*
X88000Y68300D01*
X87600Y67900D01*
X87200D01*
X87600Y67500D01*
X87200Y67100D01*
X87600D01*
X88000Y66700D01*
X78000D02*
X78400Y67100D01*
X78800D01*
X78400Y67500D01*
X78800Y67900D01*
X78400D01*
X78000Y68300D01*
X77600Y67900D01*
X77200D01*
X77600Y67500D01*
X77200Y67100D01*
X77600D01*
X78000Y66700D01*
X68000D02*
X68400Y67100D01*
X68800D01*
X68400Y67500D01*
X68800Y67900D01*
X68400D01*
X68000Y68300D01*
X67600Y67900D01*
X67200D01*
X67600Y67500D01*
X67200Y67100D01*
X67600D01*
X68000Y66700D01*
X58000D02*
X58400Y67100D01*
X58800D01*
X58400Y67500D01*
X58800Y67900D01*
X58400D01*
X58000Y68300D01*
X57600Y67900D01*
X57200D01*
X57600Y67500D01*
X57200Y67100D01*
X57600D01*
X58000Y66700D01*
X83000Y56700D02*
X83400Y57100D01*
X83800D01*
X83400Y57500D01*
X83800Y57900D01*
X83400D01*
X83000Y58300D01*
X82600Y57900D01*
X82200D01*
X82600Y57500D01*
X82200Y57100D01*
X82600D01*
X83000Y56700D01*
X73000D02*
X73400Y57100D01*
X73800D01*
X73400Y57500D01*
X73800Y57900D01*
X73400D01*
X73000Y58300D01*
X72600Y57900D01*
X72200D01*
X72600Y57500D01*
X72200Y57100D01*
X72600D01*
X73000Y56700D01*
X63000D02*
X63400Y57100D01*
X63800D01*
X63400Y57500D01*
X63800Y57900D01*
X63400D01*
X63000Y58300D01*
X62600Y57900D01*
X62200D01*
X62600Y57500D01*
X62200Y57100D01*
X62600D01*
X63000Y56700D01*
X53000D02*
X53400Y57100D01*
X53800D01*
X53400Y57500D01*
X53800Y57900D01*
X53400D01*
X53000Y58300D01*
X52600Y57900D01*
X52200D01*
X52600Y57500D01*
X52200Y57100D01*
X52600D01*
X53000Y56700D01*
X92200Y31700D02*
X92600Y32500D01*
X92200Y33300D01*
X93000Y32900D01*
X93800Y33300D01*
X93400Y32500D01*
X93800Y31700D01*
X93000Y32100D01*
X92200Y31700D01*
X47200D02*
X47600Y32500D01*
X47200Y33300D01*
X48000Y32900D01*
X48800Y33300D01*
X48400Y32500D01*
X48800Y31700D01*
X48000Y32100D01*
X47200Y31700D01*
X35700Y321700D02*
Y323300D01*
X37300D01*
Y321700D01*
X35700D01*
Y311700D02*
Y313300D01*
X37300D01*
Y311700D01*
X35700D01*
Y301700D02*
Y303300D01*
X37300D01*
Y301700D01*
X35700D01*
Y291700D02*
Y293300D01*
X37300D01*
Y291700D01*
X35700D01*
X130700Y25700D02*
Y27300D01*
X132300D01*
Y25700D01*
X130700D01*
X140700D02*
Y27300D01*
X142300D01*
Y25700D01*
X140700D01*
X150700D02*
Y27300D01*
X152300D01*
Y25700D01*
X150700D01*
X160700D02*
Y27300D01*
X162300D01*
Y25700D01*
X160700D01*
X170700D02*
Y27300D01*
X172300D01*
Y25700D01*
X170700D01*
X180700D02*
Y27300D01*
X182300D01*
Y25700D01*
X180700D01*
X190700D02*
Y27300D01*
X192300D01*
Y25700D01*
X190700D01*
X200700D02*
Y27300D01*
X202300D01*
Y25700D01*
X200700D01*
X210700D02*
Y27300D01*
X212300D01*
Y25700D01*
X210700D01*
X220700D02*
Y27300D01*
X222300D01*
Y25700D01*
X220700D01*
X230700D02*
Y27300D01*
X232300D01*
Y25700D01*
X230700D01*
X240700D02*
Y27300D01*
X242300D01*
Y25700D01*
X240700D01*
X250700D02*
Y27300D01*
X252300D01*
Y25700D01*
X250700D01*
X260700D02*
Y27300D01*
X262300D01*
Y25700D01*
X260700D01*
X130700Y55700D02*
Y57300D01*
X132300D01*
Y55700D01*
X130700D01*
X140700D02*
Y57300D01*
X142300D01*
Y55700D01*
X140700D01*
X150700D02*
Y57300D01*
X152300D01*
Y55700D01*
X150700D01*
X160700D02*
Y57300D01*
X162300D01*
Y55700D01*
X160700D01*
X170700D02*
Y57300D01*
X172300D01*
Y55700D01*
X170700D01*
X180700D02*
Y57300D01*
X182300D01*
Y55700D01*
X180700D01*
X190700D02*
Y57300D01*
X192300D01*
Y55700D01*
X190700D01*
X200700D02*
Y57300D01*
X202300D01*
Y55700D01*
X200700D01*
X210700D02*
Y57300D01*
X212300D01*
Y55700D01*
X210700D01*
X220700D02*
Y57300D01*
X222300D01*
Y55700D01*
X220700D01*
X230700D02*
Y57300D01*
X232300D01*
Y55700D01*
X230700D01*
X240700D02*
Y57300D01*
X242300D01*
Y55700D01*
X240700D01*
X250700D02*
Y57300D01*
X252300D01*
Y55700D01*
X250700D01*
X260700D02*
Y57300D01*
X262300D01*
Y55700D01*
X260700D01*
X16200Y321700D02*
Y323300D01*
X17800D01*
Y321700D01*
X16200D01*
Y311700D02*
Y313300D01*
X17800D01*
Y311700D01*
X16200D01*
X56200Y291700D02*
Y293300D01*
X57800D01*
Y291700D01*
X56200D01*
Y281700D02*
Y283300D01*
X57800D01*
Y281700D01*
X56200D01*
X218100Y107100D02*
Y106700D01*
X218900D01*
Y107100D01*
X219300D01*
Y107900D01*
X218900D01*
Y108300D01*
X218100D01*
Y107900D01*
X217700D01*
Y107100D01*
X218100D01*
X228100D02*
Y106700D01*
X228900D01*
Y107100D01*
X229300D01*
Y107900D01*
X228900D01*
Y108300D01*
X228100D01*
Y107900D01*
X227700D01*
Y107100D01*
X228100D01*
X238100D02*
Y106700D01*
X238900D01*
Y107100D01*
X239300D01*
Y107900D01*
X238900D01*
Y108300D01*
X238100D01*
Y107900D01*
X237700D01*
Y107100D01*
X238100D01*
Y137100D02*
Y136700D01*
X238900D01*
Y137100D01*
X239300D01*
Y137900D01*
X238900D01*
Y138300D01*
X238100D01*
Y137900D01*
X237700D01*
Y137100D01*
X238100D01*
X228100D02*
Y136700D01*
X228900D01*
Y137100D01*
X229300D01*
Y137900D01*
X228900D01*
Y138300D01*
X228100D01*
Y137900D01*
X227700D01*
Y137100D01*
X228100D01*
X218100D02*
Y136700D01*
X218900D01*
Y137100D01*
X219300D01*
Y137900D01*
X218900D01*
Y138300D01*
X218100D01*
Y137900D01*
X217700D01*
Y137100D01*
X218100D01*
X320224Y136700D02*
X320624D01*
X321024Y137100D01*
X321424Y136700D01*
X321824D01*
Y137100D01*
X321424Y137500D01*
X321824Y137900D01*
Y138300D01*
X321424D01*
X321024Y137900D01*
X320624Y138300D01*
X320224D01*
Y137900D01*
X320624Y137500D01*
X320224Y137100D01*
Y136700D01*
X259200D02*
X259600D01*
X260000Y137100D01*
X260400Y136700D01*
X260800D01*
Y137100D01*
X260400Y137500D01*
X260800Y137900D01*
Y138300D01*
X260400D01*
X260000Y137900D01*
X259600Y138300D01*
X259200D01*
Y137900D01*
X259600Y137500D01*
X259200Y137100D01*
Y136700D01*
X67700Y148000D02*
X68500Y148800D01*
X69300Y148000D01*
X68500Y147200D01*
X67700Y148000D01*
X37700D02*
X38500Y148800D01*
X39300Y148000D01*
X38500Y147200D01*
X37700Y148000D01*
X87700D02*
X88500Y148800D01*
X89300Y148000D01*
X88500Y147200D01*
X87700Y148000D01*
X37700Y178000D02*
X38500Y178800D01*
X39300Y178000D01*
X38500Y177200D01*
X37700Y178000D01*
X87700D02*
X88500Y178800D01*
X89300Y178000D01*
X88500Y177200D01*
X87700Y178000D01*
X192432Y141700D02*
Y143300D01*
X194032D01*
Y141700D01*
X192432D01*
X192832Y142100D02*
Y142900D01*
X193632D01*
Y142100D01*
X192832D01*
X192432Y111700D02*
Y113300D01*
X194032D01*
Y111700D01*
X192432D01*
X192832Y112100D02*
Y112900D01*
X193632D01*
Y112100D01*
X192832D01*
X88200Y305200D02*
Y306800D01*
X89800D01*
Y305200D01*
X88200D01*
Y315200D02*
Y316800D01*
X89800D01*
Y315200D01*
X88200D01*
Y325200D02*
Y326800D01*
X89800D01*
Y325200D01*
X88200D01*
Y335200D02*
Y336800D01*
X89800D01*
Y335200D01*
X88200D01*
Y345200D02*
Y346800D01*
X89800D01*
Y345200D01*
X88200D01*
Y355200D02*
Y356800D01*
X89800D01*
Y355200D01*
X88200D01*
X135700Y305200D02*
Y306800D01*
X137300D01*
Y305200D01*
X135700D01*
Y315200D02*
Y316800D01*
X137300D01*
Y315200D01*
X135700D01*
Y325200D02*
Y326800D01*
X137300D01*
Y325200D01*
X135700D01*
Y335200D02*
Y336800D01*
X137300D01*
Y335200D01*
X135700D01*
Y345200D02*
Y346800D01*
X137300D01*
Y345200D01*
X135700D01*
Y355200D02*
Y356800D01*
X137300D01*
Y355200D01*
X135700D01*
X185700Y305200D02*
Y306800D01*
X187300D01*
Y305200D01*
X185700D01*
Y315200D02*
Y316800D01*
X187300D01*
Y315200D01*
X185700D01*
Y325200D02*
Y326800D01*
X187300D01*
Y325200D01*
X185700D01*
Y335200D02*
Y336800D01*
X187300D01*
Y335200D01*
X185700D01*
Y345200D02*
Y346800D01*
X187300D01*
Y345200D01*
X185700D01*
Y355200D02*
Y356800D01*
X187300D01*
Y355200D01*
X185700D01*
X235200Y305200D02*
Y306800D01*
X236800D01*
Y305200D01*
X235200D01*
Y315200D02*
Y316800D01*
X236800D01*
Y315200D01*
X235200D01*
Y325200D02*
Y326800D01*
X236800D01*
Y325200D01*
X235200D01*
Y335200D02*
Y336800D01*
X236800D01*
Y335200D01*
X235200D01*
Y345200D02*
Y346800D01*
X236800D01*
Y345200D01*
X235200D01*
Y355200D02*
Y356800D01*
X236800D01*
Y355200D01*
X235200D01*
X284700Y305200D02*
Y306800D01*
X286300D01*
Y305200D01*
X284700D01*
Y315200D02*
Y316800D01*
X286300D01*
Y315200D01*
X284700D01*
Y325200D02*
Y326800D01*
X286300D01*
Y325200D01*
X284700D01*
Y335200D02*
Y336800D01*
X286300D01*
Y335200D01*
X284700D01*
Y345200D02*
Y346800D01*
X286300D01*
Y345200D01*
X284700D01*
Y355200D02*
Y356800D01*
X286300D01*
Y355200D01*
X284700D01*
X332200Y305200D02*
Y306800D01*
X333800D01*
Y305200D01*
X332200D01*
Y315200D02*
Y316800D01*
X333800D01*
Y315200D01*
X332200D01*
Y325200D02*
Y326800D01*
X333800D01*
Y325200D01*
X332200D01*
Y335200D02*
Y336800D01*
X333800D01*
Y335200D01*
X332200D01*
Y345200D02*
Y346800D01*
X333800D01*
Y345200D01*
X332200D01*
Y355200D02*
Y356800D01*
X333800D01*
Y355200D01*
X332200D01*
X158968Y142200D02*
Y143800D01*
X160568D01*
Y142200D01*
X158968D01*
X159368Y142600D02*
Y143400D01*
X160168D01*
Y142600D01*
X159368D01*
X158968Y112200D02*
Y113800D01*
X160568D01*
Y112200D01*
X158968D01*
X159368Y112600D02*
Y113400D01*
X160168D01*
Y112600D01*
X159368D01*
X133200Y117700D02*
Y119300D01*
X134800D01*
Y117700D01*
X133200D01*
X123200D02*
Y119300D01*
X124800D01*
Y117700D01*
X123200D01*
X133200Y127700D02*
Y129300D01*
X134800D01*
Y127700D01*
X133200D01*
X123200D02*
Y129300D01*
X124800D01*
Y127700D01*
X123200D01*
X133200Y137700D02*
Y139300D01*
X134800D01*
Y137700D01*
X133200D01*
X123200D02*
Y139300D01*
X124800D01*
Y137700D01*
X123200D01*
X353700Y109700D02*
Y111300D01*
X355300D01*
Y109700D01*
X353700D01*
Y99700D02*
Y101300D01*
X355300D01*
Y99700D01*
X353700D01*
Y143200D02*
Y144800D01*
X355300D01*
Y143200D01*
X353700D01*
Y133200D02*
Y134800D01*
X355300D01*
Y133200D01*
X353700D01*
Y176200D02*
Y177800D01*
X355300D01*
Y176200D01*
X353700D01*
Y166200D02*
Y167800D01*
X355300D01*
Y166200D01*
X353700D01*
X333004Y205239D02*
Y206839D01*
X334604D01*
Y205239D01*
X333004D01*
Y215239D02*
Y216839D01*
X334604D01*
Y215239D01*
X333004D01*
Y225239D02*
Y226839D01*
X334604D01*
Y225239D01*
X333004D01*
Y235239D02*
Y236839D01*
X334604D01*
Y235239D01*
X333004D01*
Y245239D02*
Y246839D01*
X334604D01*
Y245239D01*
X333004D01*
Y255239D02*
Y256839D01*
X334604D01*
Y255239D01*
X333004D01*
X287818Y205239D02*
Y206839D01*
X289418D01*
Y205239D01*
X287818D01*
Y215239D02*
Y216839D01*
X289418D01*
Y215239D01*
X287818D01*
Y225239D02*
Y226839D01*
X289418D01*
Y225239D01*
X287818D01*
Y235239D02*
Y236839D01*
X289418D01*
Y235239D01*
X287818D01*
Y245239D02*
Y246839D01*
X289418D01*
Y245239D01*
X287818D01*
Y255239D02*
Y256839D01*
X289418D01*
Y255239D01*
X287818D01*
X242632Y205239D02*
Y206839D01*
X244232D01*
Y205239D01*
X242632D01*
Y215239D02*
Y216839D01*
X244232D01*
Y215239D01*
X242632D01*
Y225239D02*
Y226839D01*
X244232D01*
Y225239D01*
X242632D01*
Y235239D02*
Y236839D01*
X244232D01*
Y235239D01*
X242632D01*
Y245239D02*
Y246839D01*
X244232D01*
Y245239D01*
X242632D01*
Y255239D02*
Y256839D01*
X244232D01*
Y255239D01*
X242632D01*
X197445Y205239D02*
Y206839D01*
X199045D01*
Y205239D01*
X197445D01*
Y215239D02*
Y216839D01*
X199045D01*
Y215239D01*
X197445D01*
Y225239D02*
Y226839D01*
X199045D01*
Y225239D01*
X197445D01*
Y235239D02*
Y236839D01*
X199045D01*
Y235239D01*
X197445D01*
Y245239D02*
Y246839D01*
X199045D01*
Y245239D01*
X197445D01*
Y255239D02*
Y256839D01*
X199045D01*
Y255239D01*
X197445D01*
X152259Y205239D02*
Y206839D01*
X153859D01*
Y205239D01*
X152259D01*
Y215239D02*
Y216839D01*
X153859D01*
Y215239D01*
X152259D01*
Y225239D02*
Y226839D01*
X153859D01*
Y225239D01*
X152259D01*
Y235239D02*
Y236839D01*
X153859D01*
Y235239D01*
X152259D01*
Y245239D02*
Y246839D01*
X153859D01*
Y245239D01*
X152259D01*
Y255239D02*
Y256839D01*
X153859D01*
Y255239D01*
X152259D01*
X107073Y205239D02*
Y206839D01*
X108673D01*
Y205239D01*
X107073D01*
Y215239D02*
Y216839D01*
X108673D01*
Y215239D01*
X107073D01*
Y225239D02*
Y226839D01*
X108673D01*
Y225239D01*
X107073D01*
Y235239D02*
Y236839D01*
X108673D01*
Y235239D01*
X107073D01*
Y245239D02*
Y246839D01*
X108673D01*
Y245239D01*
X107073D01*
Y255239D02*
Y256839D01*
X108673D01*
Y255239D01*
X107073D01*
X61886Y205239D02*
Y206839D01*
X63486D01*
Y205239D01*
X61886D01*
Y215239D02*
Y216839D01*
X63486D01*
Y215239D01*
X61886D01*
Y225239D02*
Y226839D01*
X63486D01*
Y225239D01*
X61886D01*
Y235239D02*
Y236839D01*
X63486D01*
Y235239D01*
X61886D01*
Y245239D02*
Y246839D01*
X63486D01*
Y245239D01*
X61886D01*
Y255239D02*
Y256839D01*
X63486D01*
Y255239D01*
X61886D01*
X16700Y205239D02*
Y206839D01*
X18300D01*
Y205239D01*
X16700D01*
Y215239D02*
Y216839D01*
X18300D01*
Y215239D01*
X16700D01*
Y225239D02*
Y226839D01*
X18300D01*
Y225239D01*
X16700D01*
Y235239D02*
Y236839D01*
X18300D01*
Y235239D01*
X16700D01*
Y245239D02*
Y246839D01*
X18300D01*
Y245239D01*
X16700D01*
Y255239D02*
Y256839D01*
X18300D01*
Y255239D01*
X16700D01*
D52*
X18300Y353500D02*
X17747Y354261D01*
X16853Y353970D01*
Y353030D01*
X17747Y352739D01*
X18300Y353500D01*
X374800D02*
X374247Y354261D01*
X373353Y353970D01*
Y353030D01*
X374247Y352739D01*
X374800Y353500D01*
X18300Y37500D02*
X17747Y38261D01*
X16853Y37970D01*
Y37030D01*
X17747Y36739D01*
X18300Y37500D01*
X374800D02*
X374247Y38261D01*
X373353Y37970D01*
Y37030D01*
X374247Y36739D01*
X374800Y37500D01*
X224800Y-742000D02*
X224247Y-741239D01*
X223353Y-741530D01*
Y-742470D01*
X224247Y-742761D01*
X224800Y-742000D01*
X581300D02*
X580747Y-741239D01*
X579853Y-741530D01*
Y-742470D01*
X580747Y-742761D01*
X581300Y-742000D01*
X224800Y-1058000D02*
X224247Y-1057239D01*
X223353Y-1057530D01*
Y-1058470D01*
X224247Y-1058761D01*
X224800Y-1058000D01*
X581300D02*
X580747Y-1057239D01*
X579853Y-1057530D01*
Y-1058470D01*
X580747Y-1058761D01*
X581300Y-1058000D01*
X152300Y93500D02*
X151747Y94261D01*
X150853Y93970D01*
Y93030D01*
X151747Y92739D01*
X152300Y93500D01*
X144300Y138500D02*
X143747Y139261D01*
X142853Y138970D01*
Y138030D01*
X143747Y137739D01*
X144300Y138500D01*
X150800Y118500D02*
X150247Y119261D01*
X149353Y118970D01*
Y118030D01*
X150247Y117739D01*
X150800Y118500D01*
X216800Y256039D02*
X216247Y256800D01*
X215353Y256509D01*
Y255569D01*
X216247Y255278D01*
X216800Y256039D01*
D53*
X151900Y93500D02*
X151300Y93846D01*
Y93154D01*
X151900Y93500D01*
X143900Y138500D02*
X143300Y138846D01*
Y138154D01*
X143900Y138500D01*
X150400Y118500D02*
X149800Y118846D01*
Y118154D01*
X150400Y118500D01*
X216400Y256039D02*
X215800Y256386D01*
Y255693D01*
X216400Y256039D01*
M02*
