G04*
G04 #@! TF.GenerationSoftware,Altium Limited,Altium Designer,19.0.10 (269)*
G04*
G04 Layer_Color=65535*
%FSLAX25Y25*%
%MOIN*%
G70*
G01*
G75*
%ADD10C,0.00984*%
%ADD11C,0.02362*%
%ADD12C,0.00787*%
%ADD13C,0.00500*%
%ADD14C,0.01000*%
%ADD15C,0.00800*%
D10*
X285177Y57500D02*
X284439Y57926D01*
Y57074D01*
X285177Y57500D01*
X33177D02*
X32439Y57926D01*
Y57074D01*
X33177Y57500D01*
X267110Y56500D02*
X266372Y56926D01*
Y56074D01*
X267110Y56500D01*
X147268Y83500D02*
X146529Y83926D01*
Y83074D01*
X147268Y83500D01*
D11*
X263429Y47996D02*
X262984Y48919D01*
X261985Y49148D01*
X261184Y48509D01*
Y47484D01*
X261985Y46845D01*
X262984Y47073D01*
X263429Y47996D01*
D12*
X266185Y44000D02*
X265228Y43810D01*
X264417Y43268D01*
X263875Y42457D01*
X263685Y41500D01*
X263875Y40543D01*
X264417Y39732D01*
X265228Y39190D01*
X266185Y39000D01*
X89117Y186153D02*
X88395D01*
X89117D01*
X96846Y208000D02*
Y228000D01*
X86846D02*
X96846D01*
X86846Y208000D02*
Y228000D01*
Y208000D02*
X96846D01*
X142000D02*
Y228000D01*
X132000D02*
X142000D01*
X132000Y208000D02*
Y228000D01*
Y208000D02*
X142000D01*
X187000D02*
Y228000D01*
X177000D02*
X187000D01*
X177000Y208000D02*
Y228000D01*
Y208000D02*
X187000D01*
X233000D02*
Y228000D01*
X223000D02*
X233000D01*
X223000Y208000D02*
Y228000D01*
Y208000D02*
X233000D01*
X278500D02*
Y228000D01*
X268500D02*
X278500D01*
X268500Y208000D02*
Y228000D01*
Y208000D02*
X278500D01*
X322500D02*
Y228000D01*
X312500D02*
X322500D01*
X312500Y208000D02*
Y228000D01*
Y208000D02*
X322500D01*
X368000D02*
Y228000D01*
X358000D02*
X368000D01*
X358000Y208000D02*
Y228000D01*
Y208000D02*
X368000D01*
X50342D02*
Y228000D01*
X40342D02*
X50342D01*
X40342Y208000D02*
Y228000D01*
Y208000D02*
X50342D01*
X321000Y311000D02*
Y331000D01*
X311000D02*
X321000D01*
X311000Y311000D02*
Y331000D01*
Y311000D02*
X321000D01*
X364500D02*
Y331000D01*
X354500D02*
X364500D01*
X354500Y311000D02*
Y331000D01*
Y311000D02*
X364500D01*
X272500D02*
Y331000D01*
X262500D02*
X272500D01*
X262500Y311000D02*
Y331000D01*
Y311000D02*
X272500D01*
X222346D02*
Y331000D01*
X212346D02*
X222346D01*
X212346Y311000D02*
Y331000D01*
Y311000D02*
X222346D01*
X172500D02*
Y331000D01*
X162500D02*
X172500D01*
X162500Y311000D02*
Y331000D01*
Y311000D02*
X172500D01*
X123500D02*
Y331000D01*
X113500D02*
X123500D01*
X113500Y311000D02*
Y331000D01*
Y311000D02*
X123500D01*
X225248Y79319D02*
Y88669D01*
X218752Y79319D02*
X225248D01*
X218752D02*
Y88669D01*
X22000Y277500D02*
Y297500D01*
X12000D02*
X22000D01*
X12000Y277500D02*
Y297500D01*
Y277500D02*
X22000D01*
X357756Y26201D02*
Y73996D01*
Y492D02*
Y14783D01*
X287244Y492D02*
Y14783D01*
Y26201D02*
Y73996D01*
Y492D02*
X357756D01*
X287244Y73996D02*
X357756D01*
X105756Y26201D02*
Y73996D01*
Y492D02*
Y14783D01*
X35244Y492D02*
Y14783D01*
Y26201D02*
Y73996D01*
Y492D02*
X105756D01*
X35244Y73996D02*
X105756D01*
X31500Y287500D02*
X41500D01*
X31500D02*
Y327500D01*
X41500Y287500D02*
Y327500D01*
X31500D02*
X41500D01*
X126815Y31067D02*
Y51933D01*
X266185Y31067D02*
Y39000D01*
Y44000D02*
Y51933D01*
X126815Y31067D02*
X266185D01*
X126815Y51933D02*
X266185D01*
X12000Y307500D02*
X22000D01*
X12000D02*
Y327500D01*
X22000D01*
Y307500D02*
Y327500D01*
X52000Y277500D02*
X62000D01*
X52000D02*
Y297500D01*
X62000D01*
Y277500D02*
Y297500D01*
X213500Y105335D02*
Y136280D01*
X243500Y108720D02*
Y136280D01*
X302913Y142000D02*
X317283D01*
X263740D02*
X278110D01*
Y137472D02*
Y146528D01*
Y137472D02*
X302913D01*
Y146528D01*
X278110D02*
X302913D01*
X32004Y182685D02*
X94996D01*
X32004Y143315D02*
Y182685D01*
Y143315D02*
X94996D01*
Y182685D01*
X185732Y150000D02*
X200732D01*
Y105000D02*
Y150000D01*
X185732Y105000D02*
X200732D01*
X185732D02*
Y150000D01*
X84000Y361000D02*
X94000D01*
X84000Y301000D02*
X94000D01*
X84000D02*
Y361000D01*
X94000Y301000D02*
Y361000D01*
X131500D02*
X141500D01*
X131500Y301000D02*
X141500D01*
X131500D02*
Y361000D01*
X141500Y301000D02*
Y361000D01*
X181500D02*
X191500D01*
X181500Y301000D02*
X191500D01*
X181500D02*
Y361000D01*
X191500Y301000D02*
Y361000D01*
X231000D02*
X241000D01*
X231000Y301000D02*
X241000D01*
X231000D02*
Y361000D01*
X241000Y301000D02*
Y361000D01*
X280500D02*
X290500D01*
X280500Y301000D02*
X290500D01*
X280500D02*
Y361000D01*
X290500Y301000D02*
Y361000D01*
X328000D02*
X338000D01*
X328000Y301000D02*
X338000D01*
X328000D02*
Y361000D01*
X338000Y301000D02*
Y361000D01*
X154059Y74248D02*
X198941D01*
Y78972D01*
X154059Y74248D02*
Y78972D01*
Y88028D02*
Y92752D01*
X198941Y88028D02*
Y92752D01*
X154059D02*
X198941D01*
X152268Y150500D02*
X167268D01*
Y105500D02*
Y150500D01*
X152268Y105500D02*
X167268D01*
X152268D02*
Y150500D01*
X119000Y143500D02*
X139000D01*
X119000Y113500D02*
X139000D01*
X119000D02*
Y143500D01*
X139000Y113500D02*
Y143500D01*
Y124333D02*
Y143500D01*
X349500Y95500D02*
X359500D01*
X349500D02*
Y115500D01*
X359500D01*
Y95500D02*
Y115500D01*
X349500Y129000D02*
X359500D01*
X349500D02*
Y149000D01*
X359500D01*
Y129000D02*
Y149000D01*
X349500Y162000D02*
X359500D01*
X349500D02*
Y182000D01*
X359500D01*
Y162000D02*
Y182000D01*
X328804Y261039D02*
X338804D01*
X328804Y201039D02*
X338804D01*
X328804D02*
Y261039D01*
X338804Y201039D02*
Y261039D01*
X283618D02*
X293618D01*
X283618Y201039D02*
X293618D01*
X283618D02*
Y261039D01*
X293618Y201039D02*
Y261039D01*
X238432D02*
X248432D01*
X238432Y201039D02*
X248432D01*
X238432D02*
Y261039D01*
X248432Y201039D02*
Y261039D01*
X193245D02*
X203245D01*
X193245Y201039D02*
X203245D01*
X193245D02*
Y261039D01*
X203245Y201039D02*
Y261039D01*
X148059D02*
X158059D01*
X148059Y201039D02*
X158059D01*
X148059D02*
Y261039D01*
X158059Y201039D02*
Y261039D01*
X102873D02*
X112873D01*
X102873Y201039D02*
X112873D01*
X102873D02*
Y261039D01*
X112873Y201039D02*
Y261039D01*
X57686D02*
X67686D01*
X57686Y201039D02*
X67686D01*
X57686D02*
Y261039D01*
X67686Y201039D02*
Y261039D01*
X12500D02*
X22500D01*
X12500Y201039D02*
X22500D01*
X12500D02*
Y261039D01*
X22500Y201039D02*
Y261039D01*
D13*
X227870Y157327D02*
Y162366D01*
X209130Y157327D02*
Y162366D01*
X259130Y80480D02*
Y85520D01*
X277870Y80480D02*
Y85520D01*
X54480Y331870D02*
X59520D01*
X54480Y313130D02*
X59520D01*
X237130Y80480D02*
Y85520D01*
X255870Y80480D02*
Y85520D01*
X109980Y355370D02*
X115020D01*
X109980Y336630D02*
X115020D01*
X158980Y355370D02*
X164020D01*
X158980Y336630D02*
X164020D01*
X208980Y355370D02*
X214020D01*
X208980Y336630D02*
X214020D01*
X258980Y355370D02*
X264020D01*
X258980Y336630D02*
X264020D01*
X307480Y355370D02*
X312520D01*
X307480Y336630D02*
X312520D01*
X350984Y355370D02*
X356024D01*
X350984Y336630D02*
X356024D01*
X354480Y251370D02*
X359520D01*
X354480Y232630D02*
X359520D01*
X308980Y251370D02*
X314020D01*
X308980Y232630D02*
X314020D01*
X264980Y251370D02*
X270020D01*
X264980Y232630D02*
X270020D01*
X219480Y251370D02*
X224520D01*
X219480Y232630D02*
X224520D01*
X173480Y251370D02*
X178520D01*
X173480Y232630D02*
X178520D01*
X128980Y251370D02*
X134020D01*
X128980Y232630D02*
X134020D01*
X83480Y251370D02*
X88520D01*
X83480Y232630D02*
X88520D01*
X36976Y251370D02*
X42016D01*
X36976Y232630D02*
X42016D01*
D14*
X88499Y383998D02*
X87499Y384998D01*
X85500D01*
X84500Y383998D01*
Y382999D01*
X85500Y381999D01*
X87499D01*
X88499Y380999D01*
Y380000D01*
X87499Y379000D01*
X85500D01*
X84500Y380000D01*
X90498Y384998D02*
Y379000D01*
X93497D01*
X94497Y380000D01*
Y383998D01*
X93497Y384998D01*
X90498D01*
X100495Y383998D02*
X99495Y384998D01*
X97496D01*
X96496Y383998D01*
Y382999D01*
X97496Y381999D01*
X99495D01*
X100495Y380999D01*
Y380000D01*
X99495Y379000D01*
X97496D01*
X96496Y380000D01*
X102494Y384998D02*
Y380000D01*
X103494Y379000D01*
X105493D01*
X106493Y380000D01*
Y384998D01*
X108492Y379000D02*
Y384998D01*
X111491D01*
X112491Y383998D01*
Y381999D01*
X111491Y380999D01*
X108492D01*
X110492D02*
X112491Y379000D01*
X114490D02*
Y384998D01*
X117489D01*
X118489Y383998D01*
Y381999D01*
X117489Y380999D01*
X114490D01*
X126486Y379000D02*
Y382999D01*
X128486Y384998D01*
X130485Y382999D01*
Y379000D01*
Y381999D01*
X126486D01*
X136483Y383998D02*
X135484Y384998D01*
X133484D01*
X132484Y383998D01*
Y380000D01*
X133484Y379000D01*
X135484D01*
X136483Y380000D01*
X142481Y383998D02*
X141482Y384998D01*
X139482D01*
X138482Y383998D01*
Y382999D01*
X139482Y381999D01*
X141482D01*
X142481Y380999D01*
Y380000D01*
X141482Y379000D01*
X139482D01*
X138482Y380000D01*
X150479Y379000D02*
Y384998D01*
X153478D01*
X154477Y383998D01*
Y381999D01*
X153478Y380999D01*
X150479D01*
X160475Y383998D02*
X159476Y384998D01*
X157476D01*
X156477Y383998D01*
Y380000D01*
X157476Y379000D01*
X159476D01*
X160475Y380000D01*
X162475Y384998D02*
Y379000D01*
X165474D01*
X166473Y380000D01*
Y380999D01*
X165474Y381999D01*
X162475D01*
X165474D01*
X166473Y382999D01*
Y383998D01*
X165474Y384998D01*
X162475D01*
X178470D02*
X174471D01*
Y381999D01*
X176470Y382999D01*
X177470D01*
X178470Y381999D01*
Y380000D01*
X177470Y379000D01*
X175471D01*
X174471Y380000D01*
X180469Y379000D02*
Y380000D01*
X181469D01*
Y379000D01*
X180469D01*
X185467Y383998D02*
X186467Y384998D01*
X188466D01*
X189466Y383998D01*
Y380000D01*
X188466Y379000D01*
X186467D01*
X185467Y380000D01*
Y383998D01*
X121714Y11999D02*
X120857Y11713D01*
X120286Y10856D01*
X120000Y9428D01*
Y8571D01*
X120286Y7143D01*
X120857Y6286D01*
X121714Y6000D01*
X122285D01*
X123142Y6286D01*
X123714Y7143D01*
X123999Y8571D01*
Y9428D01*
X123714Y10856D01*
X123142Y11713D01*
X122285Y11999D01*
X121714D01*
X130055Y10856D02*
X130626Y11142D01*
X131483Y11999D01*
Y6000D01*
X139453Y10570D02*
Y10856D01*
X139739Y11427D01*
X140024Y11713D01*
X140596Y11999D01*
X141738D01*
X142309Y11713D01*
X142595Y11427D01*
X142881Y10856D01*
Y10285D01*
X142595Y9713D01*
X142024Y8856D01*
X139167Y6000D01*
X143166D01*
X149794Y11999D02*
X152936D01*
X151222Y9713D01*
X152079D01*
X152650Y9428D01*
X152936Y9142D01*
X153221Y8285D01*
Y7714D01*
X152936Y6857D01*
X152365Y6286D01*
X151507Y6000D01*
X150651D01*
X149794Y6286D01*
X149508Y6571D01*
X149222Y7143D01*
X162134Y11999D02*
X159277Y8000D01*
X163562D01*
X162134Y11999D02*
Y6000D01*
X172760Y11999D02*
X169904D01*
X169618Y9428D01*
X169904Y9713D01*
X170761Y9999D01*
X171617D01*
X172475Y9713D01*
X173046Y9142D01*
X173331Y8285D01*
Y7714D01*
X173046Y6857D01*
X172475Y6286D01*
X171617Y6000D01*
X170761D01*
X169904Y6286D01*
X169618Y6571D01*
X169332Y7143D01*
X209100Y171846D02*
Y177845D01*
X212099D01*
X213099Y176845D01*
Y174846D01*
X212099Y173846D01*
X209100D01*
X211099D02*
X213099Y171846D01*
X215098D02*
X217097D01*
X216098D01*
Y177845D01*
X215098Y176845D01*
X220096Y172846D02*
X221096Y171846D01*
X223095D01*
X224095Y172846D01*
Y176845D01*
X223095Y177845D01*
X221096D01*
X220096Y176845D01*
Y175845D01*
X221096Y174846D01*
X224095D01*
X259100Y95000D02*
Y100998D01*
X262099D01*
X263099Y99998D01*
Y97999D01*
X262099Y96999D01*
X259100D01*
X261099D02*
X263099Y95000D01*
X269097D02*
X265098D01*
X269097Y98999D01*
Y99998D01*
X268097Y100998D01*
X266098D01*
X265098Y99998D01*
X349000Y255400D02*
Y261398D01*
X351999D01*
X352999Y260398D01*
Y258399D01*
X351999Y257399D01*
X349000D01*
X350999D02*
X352999Y255400D01*
X354998D02*
X356997D01*
X355998D01*
Y261398D01*
X354998Y260398D01*
X359996D02*
X360996Y261398D01*
X362996D01*
X363995Y260398D01*
Y259399D01*
X362996Y258399D01*
X363995Y257399D01*
Y256400D01*
X362996Y255400D01*
X360996D01*
X359996Y256400D01*
Y257399D01*
X360996Y258399D01*
X359996Y259399D01*
Y260398D01*
X360996Y258399D02*
X362996D01*
X259500Y255400D02*
Y261398D01*
X262499D01*
X263499Y260398D01*
Y258399D01*
X262499Y257399D01*
X259500D01*
X261499D02*
X263499Y255400D01*
X265498D02*
X267497D01*
X266498D01*
Y261398D01*
X265498Y260398D01*
X274495Y261398D02*
X272496Y260398D01*
X270496Y258399D01*
Y256400D01*
X271496Y255400D01*
X273496D01*
X274495Y256400D01*
Y257399D01*
X273496Y258399D01*
X270496D01*
X214000Y255400D02*
Y261398D01*
X216999D01*
X217999Y260398D01*
Y258399D01*
X216999Y257399D01*
X214000D01*
X215999D02*
X217999Y255400D01*
X219998D02*
X221997D01*
X220998D01*
Y261398D01*
X219998Y260398D01*
X228995Y261398D02*
X224996D01*
Y258399D01*
X226996Y259399D01*
X227995D01*
X228995Y258399D01*
Y256400D01*
X227995Y255400D01*
X225996D01*
X224996Y256400D01*
X168000Y255400D02*
Y261398D01*
X170999D01*
X171999Y260398D01*
Y258399D01*
X170999Y257399D01*
X168000D01*
X169999D02*
X171999Y255400D01*
X173998D02*
X175997D01*
X174998D01*
Y261398D01*
X173998Y260398D01*
X181995Y255400D02*
Y261398D01*
X178996Y258399D01*
X182995D01*
X123500Y255400D02*
Y261398D01*
X126499D01*
X127499Y260398D01*
Y258399D01*
X126499Y257399D01*
X123500D01*
X125499D02*
X127499Y255400D01*
X129498D02*
X131497D01*
X130498D01*
Y261398D01*
X129498Y260398D01*
X134496D02*
X135496Y261398D01*
X137496D01*
X138495Y260398D01*
Y259399D01*
X137496Y258399D01*
X136496D01*
X137496D01*
X138495Y257399D01*
Y256400D01*
X137496Y255400D01*
X135496D01*
X134496Y256400D01*
X78000Y255400D02*
Y261398D01*
X80999D01*
X81999Y260398D01*
Y258399D01*
X80999Y257399D01*
X78000D01*
X79999D02*
X81999Y255400D01*
X83998D02*
X85997D01*
X84998D01*
Y261398D01*
X83998Y260398D01*
X92995Y255400D02*
X88996D01*
X92995Y259399D01*
Y260398D01*
X91996Y261398D01*
X89996D01*
X88996Y260398D01*
X31496Y255400D02*
Y261398D01*
X34495D01*
X35495Y260398D01*
Y258399D01*
X34495Y257399D01*
X31496D01*
X33495D02*
X35495Y255400D01*
X37494D02*
X39493D01*
X38494D01*
Y261398D01*
X37494Y260398D01*
X42492Y255400D02*
X44492D01*
X43492D01*
Y261398D01*
X42492Y260398D01*
X303500Y255400D02*
Y261398D01*
X306499D01*
X307499Y260398D01*
Y258399D01*
X306499Y257399D01*
X303500D01*
X305499D02*
X307499Y255400D01*
X309498D02*
X311497D01*
X310498D01*
Y261398D01*
X309498Y260398D01*
X314496D02*
X315496Y261398D01*
X317495D01*
X318495Y260398D01*
Y256400D01*
X317495Y255400D01*
X315496D01*
X314496Y256400D01*
Y260398D01*
X237100Y95000D02*
Y100998D01*
X240099D01*
X241099Y99998D01*
Y97999D01*
X240099Y96999D01*
X237100D01*
X239099D02*
X241099Y95000D01*
X243098Y96000D02*
X244098Y95000D01*
X246097D01*
X247097Y96000D01*
Y99998D01*
X246097Y100998D01*
X244098D01*
X243098Y99998D01*
Y98999D01*
X244098Y97999D01*
X247097D01*
X104500Y359400D02*
Y365398D01*
X107499D01*
X108499Y364398D01*
Y362399D01*
X107499Y361399D01*
X104500D01*
X106499D02*
X108499Y359400D01*
X110498Y364398D02*
X111498Y365398D01*
X113497D01*
X114497Y364398D01*
Y363399D01*
X113497Y362399D01*
X114497Y361399D01*
Y360400D01*
X113497Y359400D01*
X111498D01*
X110498Y360400D01*
Y361399D01*
X111498Y362399D01*
X110498Y363399D01*
Y364398D01*
X111498Y362399D02*
X113497D01*
X153500Y359400D02*
Y365398D01*
X156499D01*
X157499Y364398D01*
Y362399D01*
X156499Y361399D01*
X153500D01*
X155499D02*
X157499Y359400D01*
X159498Y365398D02*
X163497D01*
Y364398D01*
X159498Y360400D01*
Y359400D01*
X203500D02*
Y365398D01*
X206499D01*
X207499Y364398D01*
Y362399D01*
X206499Y361399D01*
X203500D01*
X205499D02*
X207499Y359400D01*
X213497Y365398D02*
X211497Y364398D01*
X209498Y362399D01*
Y360400D01*
X210498Y359400D01*
X212497D01*
X213497Y360400D01*
Y361399D01*
X212497Y362399D01*
X209498D01*
X253500Y359400D02*
Y365398D01*
X256499D01*
X257499Y364398D01*
Y362399D01*
X256499Y361399D01*
X253500D01*
X255499D02*
X257499Y359400D01*
X263497Y365398D02*
X259498D01*
Y362399D01*
X261497Y363399D01*
X262497D01*
X263497Y362399D01*
Y360400D01*
X262497Y359400D01*
X260498D01*
X259498Y360400D01*
X302000Y359400D02*
Y365398D01*
X304999D01*
X305999Y364398D01*
Y362399D01*
X304999Y361399D01*
X302000D01*
X303999D02*
X305999Y359400D01*
X310997D02*
Y365398D01*
X307998Y362399D01*
X311997D01*
X345504Y359400D02*
Y365398D01*
X348503D01*
X349503Y364398D01*
Y362399D01*
X348503Y361399D01*
X345504D01*
X347503D02*
X349503Y359400D01*
X351502Y364398D02*
X352502Y365398D01*
X354501D01*
X355501Y364398D01*
Y363399D01*
X354501Y362399D01*
X353501D01*
X354501D01*
X355501Y361399D01*
Y360400D01*
X354501Y359400D01*
X352502D01*
X351502Y360400D01*
X49000Y335900D02*
Y341898D01*
X51999D01*
X52999Y340898D01*
Y338899D01*
X51999Y337899D01*
X49000D01*
X50999D02*
X52999Y335900D01*
X54998D02*
X56997D01*
X55998D01*
Y341898D01*
X54998Y340898D01*
X146800Y102198D02*
X150799Y96200D01*
Y102198D02*
X146800Y96200D01*
X152798D02*
X154797D01*
X153798D01*
Y102198D01*
X152798Y101198D01*
X213400Y149698D02*
Y144700D01*
X214400Y143700D01*
X216399D01*
X217399Y144700D01*
Y149698D01*
X223397Y143700D02*
X219398D01*
X223397Y147699D01*
Y148698D01*
X222397Y149698D01*
X220398D01*
X219398Y148698D01*
X127400Y68898D02*
Y63900D01*
X128400Y62900D01*
X130399D01*
X131399Y63900D01*
Y68898D01*
X133398Y62900D02*
X135397D01*
X134398D01*
Y68898D01*
X133398Y67898D01*
X354099Y123898D02*
X353099Y124898D01*
X351100D01*
X350100Y123898D01*
Y122899D01*
X351100Y121899D01*
X353099D01*
X354099Y120899D01*
Y119900D01*
X353099Y118900D01*
X351100D01*
X350100Y119900D01*
X356098Y123898D02*
X357098Y124898D01*
X359097D01*
X360097Y123898D01*
Y122899D01*
X359097Y121899D01*
X358097D01*
X359097D01*
X360097Y120899D01*
Y119900D01*
X359097Y118900D01*
X357098D01*
X356098Y119900D01*
X354099Y157398D02*
X353099Y158398D01*
X351100D01*
X350100Y157398D01*
Y156399D01*
X351100Y155399D01*
X353099D01*
X354099Y154399D01*
Y153400D01*
X353099Y152400D01*
X351100D01*
X350100Y153400D01*
X360097Y152400D02*
X356098D01*
X360097Y156399D01*
Y157398D01*
X359097Y158398D01*
X357098D01*
X356098Y157398D01*
X354099Y190398D02*
X353099Y191398D01*
X351100D01*
X350100Y190398D01*
Y189399D01*
X351100Y188399D01*
X353099D01*
X354099Y187399D01*
Y186400D01*
X353099Y185400D01*
X351100D01*
X350100Y186400D01*
X356098Y185400D02*
X358097D01*
X357098D01*
Y191398D01*
X356098Y190398D01*
X257600Y151000D02*
Y156998D01*
X260599D01*
X261599Y155998D01*
Y153999D01*
X260599Y152999D01*
X257600D01*
X259599D02*
X261599Y151000D01*
X263598D02*
X265597D01*
X264598D01*
Y156998D01*
X263598Y155998D01*
X268596Y156998D02*
X272595D01*
Y155998D01*
X268596Y152000D01*
Y151000D01*
X250500Y220000D02*
Y225998D01*
X253499D01*
X254499Y224998D01*
Y222999D01*
X253499Y221999D01*
X250500D01*
X260497Y220000D02*
X256498D01*
X260497Y223999D01*
Y224998D01*
X259497Y225998D01*
X257498D01*
X256498Y224998D01*
X262496D02*
X263496Y225998D01*
X265495D01*
X266495Y224998D01*
Y221000D01*
X265495Y220000D01*
X263496D01*
X262496Y221000D01*
Y224998D01*
X205654Y219961D02*
Y225959D01*
X208653D01*
X209652Y224959D01*
Y222960D01*
X208653Y221960D01*
X205654D01*
X211652Y219961D02*
X213651D01*
X212651D01*
Y225959D01*
X211652Y224959D01*
X216650Y220960D02*
X217650Y219961D01*
X219649D01*
X220649Y220960D01*
Y224959D01*
X219649Y225959D01*
X217650D01*
X216650Y224959D01*
Y223959D01*
X217650Y222960D01*
X220649D01*
X160000Y219961D02*
Y225959D01*
X162999D01*
X163999Y224959D01*
Y222960D01*
X162999Y221960D01*
X160000D01*
X165998Y219961D02*
X167997D01*
X166998D01*
Y225959D01*
X165998Y224959D01*
X170996D02*
X171996Y225959D01*
X173995D01*
X174995Y224959D01*
Y223959D01*
X173995Y222960D01*
X174995Y221960D01*
Y220960D01*
X173995Y219961D01*
X171996D01*
X170996Y220960D01*
Y221960D01*
X171996Y222960D01*
X170996Y223959D01*
Y224959D01*
X171996Y222960D02*
X173995D01*
X115000Y219961D02*
Y225959D01*
X117999D01*
X118999Y224959D01*
Y222960D01*
X117999Y221960D01*
X115000D01*
X120998Y219961D02*
X122997D01*
X121998D01*
Y225959D01*
X120998Y224959D01*
X125996Y225959D02*
X129995D01*
Y224959D01*
X125996Y220960D01*
Y219961D01*
X69500D02*
Y225959D01*
X72499D01*
X73499Y224959D01*
Y222960D01*
X72499Y221960D01*
X69500D01*
X75498Y219961D02*
X77497D01*
X76498D01*
Y225959D01*
X75498Y224959D01*
X84495Y225959D02*
X82496Y224959D01*
X80496Y222960D01*
Y220960D01*
X81496Y219961D01*
X83495D01*
X84495Y220960D01*
Y221960D01*
X83495Y222960D01*
X80496D01*
X24000Y219961D02*
Y225959D01*
X26999D01*
X27999Y224959D01*
Y222960D01*
X26999Y221960D01*
X24000D01*
X29998Y219961D02*
X31997D01*
X30998D01*
Y225959D01*
X29998Y224959D01*
X38995Y225959D02*
X34996D01*
Y222960D01*
X36996Y223959D01*
X37995D01*
X38995Y222960D01*
Y220960D01*
X37995Y219961D01*
X35996D01*
X34996Y220960D01*
X96000Y318500D02*
Y324498D01*
X98999D01*
X99999Y323498D01*
Y321499D01*
X98999Y320499D01*
X96000D01*
X101998Y318500D02*
X103997D01*
X102998D01*
Y324498D01*
X101998Y323498D01*
X110995Y318500D02*
X106996D01*
X110995Y322499D01*
Y323498D01*
X109995Y324498D01*
X107996D01*
X106996Y323498D01*
X145500Y318500D02*
Y324498D01*
X148499D01*
X149499Y323498D01*
Y321499D01*
X148499Y320499D01*
X145500D01*
X151498Y318500D02*
X153497D01*
X152498D01*
Y324498D01*
X151498Y323498D01*
X156496Y318500D02*
X158496D01*
X157496D01*
Y324498D01*
X156496Y323498D01*
X194846Y318500D02*
Y324498D01*
X197845D01*
X198845Y323498D01*
Y321499D01*
X197845Y320499D01*
X194846D01*
X200845Y318500D02*
X202844D01*
X201844D01*
Y324498D01*
X200845Y323498D01*
X205843D02*
X206842Y324498D01*
X208842D01*
X209842Y323498D01*
Y319500D01*
X208842Y318500D01*
X206842D01*
X205843Y319500D01*
Y323498D01*
X247000Y318500D02*
Y324498D01*
X249999D01*
X250999Y323498D01*
Y321499D01*
X249999Y320499D01*
X247000D01*
X252998Y319500D02*
X253998Y318500D01*
X255997D01*
X256997Y319500D01*
Y323498D01*
X255997Y324498D01*
X253998D01*
X252998Y323498D01*
Y322499D01*
X253998Y321499D01*
X256997D01*
X296000Y318500D02*
Y324498D01*
X298999D01*
X299999Y323498D01*
Y321499D01*
X298999Y320499D01*
X296000D01*
X301998Y323498D02*
X302998Y324498D01*
X304997D01*
X305997Y323498D01*
Y322499D01*
X304997Y321499D01*
X305997Y320499D01*
Y319500D01*
X304997Y318500D01*
X302998D01*
X301998Y319500D01*
Y320499D01*
X302998Y321499D01*
X301998Y322499D01*
Y323498D01*
X302998Y321499D02*
X304997D01*
X341500Y318500D02*
Y324498D01*
X344499D01*
X345499Y323498D01*
Y321499D01*
X344499Y320499D01*
X341500D01*
X347498Y324498D02*
X351497D01*
Y323498D01*
X347498Y319500D01*
Y318500D01*
X52600Y300900D02*
Y306898D01*
X55599D01*
X56599Y305898D01*
Y303899D01*
X55599Y302899D01*
X52600D01*
X62597Y306898D02*
X58598D01*
Y303899D01*
X60597Y304899D01*
X61597D01*
X62597Y303899D01*
Y301900D01*
X61597Y300900D01*
X59598D01*
X58598Y301900D01*
X12600Y330900D02*
Y336898D01*
X15599D01*
X16599Y335898D01*
Y333899D01*
X15599Y332899D01*
X12600D01*
X21597Y330900D02*
Y336898D01*
X18598Y333899D01*
X22597D01*
X343500Y220500D02*
Y226498D01*
X346499D01*
X347499Y225498D01*
Y223499D01*
X346499Y222499D01*
X343500D01*
X349498Y225498D02*
X350498Y226498D01*
X352497D01*
X353497Y225498D01*
Y224499D01*
X352497Y223499D01*
X351497D01*
X352497D01*
X353497Y222499D01*
Y221500D01*
X352497Y220500D01*
X350498D01*
X349498Y221500D01*
X298000Y220500D02*
Y226498D01*
X300999D01*
X301999Y225498D01*
Y223499D01*
X300999Y222499D01*
X298000D01*
X307997Y220500D02*
X303998D01*
X307997Y224499D01*
Y225498D01*
X306997Y226498D01*
X304998D01*
X303998Y225498D01*
X32150Y330850D02*
Y336848D01*
X35149D01*
X36149Y335848D01*
Y333849D01*
X35149Y332849D01*
X32150D01*
X38148Y330850D02*
X40147D01*
X39148D01*
Y336848D01*
X38148Y335848D01*
X13000Y299500D02*
Y305498D01*
X14999Y303499D01*
X16999Y305498D01*
Y299500D01*
X18998D02*
X20997D01*
X19998D01*
Y305498D01*
X18998Y304498D01*
X212500Y101167D02*
Y95169D01*
X216499D01*
X222497Y101167D02*
X218498D01*
Y95169D01*
X222497D01*
X218498Y98168D02*
X220497D01*
X224496Y101167D02*
Y95169D01*
X227495D01*
X228495Y96169D01*
Y100168D01*
X227495Y101167D01*
X224496D01*
X230494Y95169D02*
X232493D01*
X231494D01*
Y101167D01*
X230494Y100168D01*
X32600Y195898D02*
Y189900D01*
Y191899D01*
X36599Y195898D01*
X33600Y192899D01*
X36599Y189900D01*
X38598D02*
X40597D01*
X39598D01*
Y195898D01*
X38598Y194898D01*
X288299Y83498D02*
X286299D01*
X287299D01*
Y78500D01*
X286299Y77500D01*
X285300D01*
X284300Y78500D01*
X294297Y77500D02*
X290298D01*
X294297Y81499D01*
Y82498D01*
X293297Y83498D01*
X291298D01*
X290298Y82498D01*
X36299Y83498D02*
X34299D01*
X35299D01*
Y78500D01*
X34299Y77500D01*
X33300D01*
X32300Y78500D01*
X38298Y77500D02*
X40297D01*
X39298D01*
Y83498D01*
X38298Y82498D01*
X119650Y157648D02*
X121649D01*
X120650D01*
Y151650D01*
X119650D01*
X121649D01*
X128647Y156648D02*
X127647Y157648D01*
X125648D01*
X124648Y156648D01*
Y152650D01*
X125648Y151650D01*
X127647D01*
X128647Y152650D01*
X134645Y156648D02*
X133645Y157648D01*
X131646D01*
X130646Y156648D01*
Y155649D01*
X131646Y154649D01*
X133645D01*
X134645Y153649D01*
Y152650D01*
X133645Y151650D01*
X131646D01*
X130646Y152650D01*
X136644Y151650D02*
Y157648D01*
X139644D01*
X140643Y156648D01*
Y154649D01*
X139644Y153649D01*
X136644D01*
X84650Y370348D02*
Y364350D01*
X87649D01*
X88649Y365350D01*
Y369348D01*
X87649Y370348D01*
X84650D01*
X94647D02*
X92647Y369348D01*
X90648Y367349D01*
Y365350D01*
X91648Y364350D01*
X93647D01*
X94647Y365350D01*
Y366349D01*
X93647Y367349D01*
X90648D01*
X132150Y370348D02*
Y364350D01*
X135149D01*
X136149Y365350D01*
Y369348D01*
X135149Y370348D01*
X132150D01*
X142147D02*
X138148D01*
Y367349D01*
X140147Y368349D01*
X141147D01*
X142147Y367349D01*
Y365350D01*
X141147Y364350D01*
X139148D01*
X138148Y365350D01*
X182150Y370348D02*
Y364350D01*
X185149D01*
X186149Y365350D01*
Y369348D01*
X185149Y370348D01*
X182150D01*
X191147Y364350D02*
Y370348D01*
X188148Y367349D01*
X192147D01*
X231650Y370348D02*
Y364350D01*
X234649D01*
X235649Y365350D01*
Y369348D01*
X234649Y370348D01*
X231650D01*
X237648Y369348D02*
X238648Y370348D01*
X240647D01*
X241647Y369348D01*
Y368349D01*
X240647Y367349D01*
X239647D01*
X240647D01*
X241647Y366349D01*
Y365350D01*
X240647Y364350D01*
X238648D01*
X237648Y365350D01*
X281150Y370348D02*
Y364350D01*
X284149D01*
X285149Y365350D01*
Y369348D01*
X284149Y370348D01*
X281150D01*
X291147Y364350D02*
X287148D01*
X291147Y368349D01*
Y369348D01*
X290147Y370348D01*
X288148D01*
X287148Y369348D01*
X328650Y370348D02*
Y364350D01*
X331649D01*
X332649Y365350D01*
Y369348D01*
X331649Y370348D01*
X328650D01*
X334648Y364350D02*
X336647D01*
X335648D01*
Y370348D01*
X334648Y369348D01*
X156916Y158848D02*
X155917Y159848D01*
X153918D01*
X152918Y158848D01*
Y154850D01*
X153918Y153850D01*
X155917D01*
X156916Y154850D01*
X162915Y153850D02*
X158916D01*
X162915Y157849D01*
Y158848D01*
X161915Y159848D01*
X159915D01*
X158916Y158848D01*
X190381Y158348D02*
X189381Y159348D01*
X187382D01*
X186382Y158348D01*
Y154350D01*
X187382Y153350D01*
X189381D01*
X190381Y154350D01*
X192380Y153350D02*
X194380D01*
X193380D01*
Y159348D01*
X192380Y158348D01*
X329454Y264389D02*
Y268388D01*
X331454Y270387D01*
X333453Y268388D01*
Y264389D01*
Y267388D01*
X329454D01*
X335452Y269388D02*
X336452Y270387D01*
X338452D01*
X339451Y269388D01*
Y268388D01*
X338452Y267388D01*
X339451Y266389D01*
Y265389D01*
X338452Y264389D01*
X336452D01*
X335452Y265389D01*
Y266389D01*
X336452Y267388D01*
X335452Y268388D01*
Y269388D01*
X336452Y267388D02*
X338452D01*
X284268Y264389D02*
Y268388D01*
X286267Y270387D01*
X288267Y268388D01*
Y264389D01*
Y267388D01*
X284268D01*
X290266Y270387D02*
X294265D01*
Y269388D01*
X290266Y265389D01*
Y264389D01*
X239082D02*
Y268388D01*
X241081Y270387D01*
X243080Y268388D01*
Y264389D01*
Y267388D01*
X239082D01*
X249078Y270387D02*
X247079Y269388D01*
X245080Y267388D01*
Y265389D01*
X246079Y264389D01*
X248079D01*
X249078Y265389D01*
Y266389D01*
X248079Y267388D01*
X245080D01*
X193895Y264389D02*
Y268388D01*
X195895Y270387D01*
X197894Y268388D01*
Y264389D01*
Y267388D01*
X193895D01*
X203892Y270387D02*
X199893D01*
Y267388D01*
X201893Y268388D01*
X202892D01*
X203892Y267388D01*
Y265389D01*
X202892Y264389D01*
X200893D01*
X199893Y265389D01*
X148709Y264389D02*
Y268388D01*
X150708Y270387D01*
X152708Y268388D01*
Y264389D01*
Y267388D01*
X148709D01*
X157706Y264389D02*
Y270387D01*
X154707Y267388D01*
X158706D01*
X103523Y264389D02*
Y268388D01*
X105522Y270387D01*
X107521Y268388D01*
Y264389D01*
Y267388D01*
X103523D01*
X109521Y269388D02*
X110520Y270387D01*
X112520D01*
X113520Y269388D01*
Y268388D01*
X112520Y267388D01*
X111520D01*
X112520D01*
X113520Y266389D01*
Y265389D01*
X112520Y264389D01*
X110520D01*
X109521Y265389D01*
X58336Y264389D02*
Y268388D01*
X60336Y270387D01*
X62335Y268388D01*
Y264389D01*
Y267388D01*
X58336D01*
X68333Y264389D02*
X64334D01*
X68333Y268388D01*
Y269388D01*
X67333Y270387D01*
X65334D01*
X64334Y269388D01*
X13150Y264389D02*
Y268388D01*
X15149Y270387D01*
X17149Y268388D01*
Y264389D01*
Y267388D01*
X13150D01*
X19148Y264389D02*
X21147D01*
X20148D01*
Y270387D01*
X19148Y269388D01*
D15*
X121002Y147832D02*
X121835Y146166D01*
X123501Y144500D01*
X125167D01*
X126000Y145333D01*
Y146999D01*
X125167Y147832D01*
X124334D01*
X123501Y146999D01*
Y144500D01*
X131002Y147832D02*
Y144500D01*
X133501D01*
X132668Y146166D01*
Y146999D01*
X133501Y147832D01*
X135167D01*
X136000Y146999D01*
Y145333D01*
X135167Y144500D01*
X126000Y111832D02*
Y108500D01*
X122668Y111832D01*
X121835D01*
X121002Y110999D01*
Y109333D01*
X121835Y108500D01*
X136000Y110500D02*
Y112166D01*
Y111333D01*
X131002D01*
X131835Y110500D01*
M02*
