G04*
G04 #@! TF.GenerationSoftware,Altium Limited,Altium Designer,19.0.10 (269)*
G04*
G04 Layer_Color=8421504*
%FSLAX25Y25*%
%MOIN*%
G70*
G01*
G75*
%ADD16R,0.18779X0.04134*%
%ADD17R,0.03740X0.03347*%
%ADD18C,0.06000*%
%ADD19R,0.04134X0.18779*%
%ADD20R,0.21654X0.05906*%
D16*
X218500Y165693D02*
D03*
Y154000D02*
D03*
X268500Y77153D02*
D03*
Y88846D02*
D03*
X246500Y77154D02*
D03*
Y88846D02*
D03*
D17*
X222000Y88669D02*
D03*
Y82370D02*
D03*
D18*
X171500Y18000D02*
D03*
X161500D02*
D03*
X151500D02*
D03*
X141500D02*
D03*
X131500D02*
D03*
X121500D02*
D03*
D19*
X51154Y322500D02*
D03*
X62846D02*
D03*
X106654Y346000D02*
D03*
X118346D02*
D03*
X155654D02*
D03*
X167346D02*
D03*
X205654D02*
D03*
X217346D02*
D03*
X255654D02*
D03*
X267346D02*
D03*
X304154D02*
D03*
X315846D02*
D03*
X347658D02*
D03*
X359350D02*
D03*
X351154Y242000D02*
D03*
X362846D02*
D03*
X305654D02*
D03*
X317346D02*
D03*
X261654D02*
D03*
X273346D02*
D03*
X216154D02*
D03*
X227846D02*
D03*
X170154D02*
D03*
X181846D02*
D03*
X125654D02*
D03*
X137346D02*
D03*
X80154D02*
D03*
X91846D02*
D03*
X33650D02*
D03*
X45342D02*
D03*
D20*
X193232Y83500D02*
D03*
X159768D02*
D03*
M02*
