G04*
G04 #@! TF.GenerationSoftware,Altium Limited,Altium Designer,18.1.7 (191)*
G04*
G04 Layer_Color=16711935*
%FSLAX25Y25*%
%MOIN*%
G70*
G01*
G75*
%ADD17C,0.06800*%
%ADD21C,0.06706*%
%ADD22R,0.06706X0.06706*%
%ADD23C,0.09068*%
%ADD24C,0.06312*%
%ADD25R,0.06312X0.06312*%
%ADD26C,0.12414*%
%ADD27R,0.05131X0.05131*%
%ADD28C,0.05131*%
%ADD29C,0.05524*%
%ADD30C,0.06902*%
%ADD31C,0.05800*%
D17*
X17500Y353500D02*
D03*
X374000D02*
D03*
X17500Y37500D02*
D03*
X374000D02*
D03*
X224000Y-742000D02*
D03*
X580500D02*
D03*
X224000Y-1058000D02*
D03*
X580500D02*
D03*
D21*
X91846Y213000D02*
D03*
X137000D02*
D03*
X182000D02*
D03*
X228000D02*
D03*
X273500D02*
D03*
X317500D02*
D03*
X363000D02*
D03*
X45342D02*
D03*
X316000Y316000D02*
D03*
X359500D02*
D03*
X267500D02*
D03*
X217346D02*
D03*
X167500D02*
D03*
X118500D02*
D03*
X17000Y282500D02*
D03*
X36500Y322500D02*
D03*
Y312500D02*
D03*
Y302500D02*
D03*
X131500Y26500D02*
D03*
X141500D02*
D03*
X151500D02*
D03*
X161500D02*
D03*
X171500D02*
D03*
X181500D02*
D03*
X191500D02*
D03*
X201500D02*
D03*
X211500D02*
D03*
X221500D02*
D03*
X231500D02*
D03*
X241500D02*
D03*
X251500D02*
D03*
X261500D02*
D03*
X131500Y56500D02*
D03*
X141500D02*
D03*
X151500D02*
D03*
X161500D02*
D03*
X171500D02*
D03*
X181500D02*
D03*
X191500D02*
D03*
X201500D02*
D03*
X211500D02*
D03*
X221500D02*
D03*
X231500D02*
D03*
X241500D02*
D03*
X251500D02*
D03*
X17000Y312500D02*
D03*
X57000Y282500D02*
D03*
X89000Y316000D02*
D03*
Y326000D02*
D03*
Y336000D02*
D03*
Y346000D02*
D03*
Y356000D02*
D03*
X136500Y316000D02*
D03*
Y326000D02*
D03*
Y336000D02*
D03*
Y346000D02*
D03*
Y356000D02*
D03*
X186500Y316000D02*
D03*
Y326000D02*
D03*
Y336000D02*
D03*
Y346000D02*
D03*
Y356000D02*
D03*
X236000Y316000D02*
D03*
Y326000D02*
D03*
Y336000D02*
D03*
Y346000D02*
D03*
Y356000D02*
D03*
X285500Y316000D02*
D03*
Y326000D02*
D03*
Y336000D02*
D03*
Y346000D02*
D03*
Y356000D02*
D03*
X333000Y316000D02*
D03*
Y326000D02*
D03*
Y336000D02*
D03*
Y346000D02*
D03*
Y356000D02*
D03*
X124000Y118500D02*
D03*
X134000Y128500D02*
D03*
X124000D02*
D03*
X134000Y138500D02*
D03*
X124000D02*
D03*
X354500Y100500D02*
D03*
Y134000D02*
D03*
Y167000D02*
D03*
X333804Y216039D02*
D03*
Y226039D02*
D03*
Y236039D02*
D03*
Y246039D02*
D03*
Y256039D02*
D03*
X288618Y216039D02*
D03*
Y226039D02*
D03*
Y236039D02*
D03*
Y246039D02*
D03*
Y256039D02*
D03*
X243432Y216039D02*
D03*
Y226039D02*
D03*
Y236039D02*
D03*
Y246039D02*
D03*
Y256039D02*
D03*
X198245Y216039D02*
D03*
Y226039D02*
D03*
Y236039D02*
D03*
Y246039D02*
D03*
Y256039D02*
D03*
X153059Y216039D02*
D03*
Y226039D02*
D03*
Y236039D02*
D03*
Y246039D02*
D03*
Y256039D02*
D03*
X107873Y216039D02*
D03*
Y226039D02*
D03*
Y236039D02*
D03*
Y246039D02*
D03*
Y256039D02*
D03*
X62686Y216039D02*
D03*
Y226039D02*
D03*
Y236039D02*
D03*
Y246039D02*
D03*
Y256039D02*
D03*
X17500Y216039D02*
D03*
Y226039D02*
D03*
Y236039D02*
D03*
Y246039D02*
D03*
Y256039D02*
D03*
D22*
X91846Y223000D02*
D03*
X137000D02*
D03*
X182000D02*
D03*
X228000D02*
D03*
X273500D02*
D03*
X317500D02*
D03*
X363000D02*
D03*
X45342D02*
D03*
X316000Y326000D02*
D03*
X359500D02*
D03*
X267500D02*
D03*
X217346D02*
D03*
X167500D02*
D03*
X118500D02*
D03*
X17000Y292500D02*
D03*
X36500D02*
D03*
X261500Y56500D02*
D03*
X17000Y322500D02*
D03*
X57000Y292500D02*
D03*
X89000Y306000D02*
D03*
X136500D02*
D03*
X186500D02*
D03*
X236000D02*
D03*
X285500D02*
D03*
X333000D02*
D03*
X134000Y118500D02*
D03*
X354500Y110500D02*
D03*
Y144000D02*
D03*
Y177000D02*
D03*
X333804Y206039D02*
D03*
X288618D02*
D03*
X243432D02*
D03*
X198245D02*
D03*
X153059D02*
D03*
X107873D02*
D03*
X62686D02*
D03*
X17500D02*
D03*
D23*
X353504Y20492D02*
D03*
X291496D02*
D03*
X101504D02*
D03*
X39496D02*
D03*
D24*
X340000Y67500D02*
D03*
X330000D02*
D03*
X320000D02*
D03*
X310000D02*
D03*
X335000Y57500D02*
D03*
X325000D02*
D03*
X315000D02*
D03*
X88000Y67500D02*
D03*
X78000D02*
D03*
X68000D02*
D03*
X58000D02*
D03*
X83000Y57500D02*
D03*
X73000D02*
D03*
X63000D02*
D03*
D25*
X305000D02*
D03*
X53000D02*
D03*
D26*
X345000Y32500D02*
D03*
X300000D02*
D03*
X93000D02*
D03*
X48000D02*
D03*
D27*
X218500Y107500D02*
D03*
D28*
X228500D02*
D03*
X238500D02*
D03*
Y137500D02*
D03*
X228500D02*
D03*
X218500D02*
D03*
D29*
X321024D02*
D03*
X260000D02*
D03*
X193232Y142500D02*
D03*
Y112500D02*
D03*
X159768Y143000D02*
D03*
Y113000D02*
D03*
D30*
X68500Y148000D02*
D03*
X38500D02*
D03*
X88500D02*
D03*
X38500Y178000D02*
D03*
X88500D02*
D03*
D31*
X151500Y93500D02*
D03*
X143500Y138500D02*
D03*
X150000Y118500D02*
D03*
X216000Y256039D02*
D03*
M02*
